<svg xmlns="http://www.w3.org/2000/svg" width="687.762" height="687.762" viewBox="0 0 687.762 687.762"><g transform="translate(1.25 1.25)" opacity="0.343"><g transform="translate(239.735 122.178)"><path d="M310.3,525.088c123.022,0,222.758-99.736,222.758-222.758S433.326,79.572,310.3,79.572,87.535,179.3,87.535,302.33,187.271,525.088,310.3,525.088" transform="translate(-87.535 -79.572)" fill="none" stroke="#fff" stroke-miterlimit="10" stroke-width="2.5"/></g><g transform="translate(119.867)"><path d="M299.349,513.933c123.033,0,222.758-99.725,222.758-222.758S422.382,68.417,299.349,68.417,76.591,168.153,76.591,291.175s99.736,222.758,222.758,222.758" transform="translate(-76.591 -68.417)" fill="none" stroke="#fff" stroke-miterlimit="10" stroke-width="2.5"/></g><g transform="translate(0 122.178)"><path d="M288.4,525.088c123.022,0,222.758-99.736,222.758-222.758S411.427,79.572,288.4,79.572,65.647,179.3,65.647,302.33,165.372,525.088,288.4,525.088" transform="translate(-65.647 -79.572)" fill="none" stroke="#fff" stroke-miterlimit="10" stroke-width="2.5"/></g><g transform="translate(119.867 239.746)"><path d="M299.349,535.822c123.033,0,222.758-99.736,222.758-222.758S422.382,90.306,299.349,90.306,76.591,190.042,76.591,313.064s99.736,222.758,222.758,222.758" transform="translate(-76.591 -90.306)" fill="none" stroke="#fff" stroke-miterlimit="10" stroke-width="2.5"/></g></g></svg>