<svg xmlns="http://www.w3.org/2000/svg" width="16.88" height="16.876" viewBox="0 0 16.88 16.876"><path d="M8.437,6.349a4.327,4.327,0,1,0,4.327,4.327A4.32,4.32,0,0,0,8.437,6.349Zm0,7.14a2.813,2.813,0,1,1,2.813-2.813,2.818,2.818,0,0,1-2.813,2.813ZM13.95,6.172a1.009,1.009,0,1,1-1.009-1.009A1.007,1.007,0,0,1,13.95,6.172ZM16.816,7.2A4.994,4.994,0,0,0,15.452,3.66,5.027,5.027,0,0,0,11.916,2.3c-1.393-.079-5.57-.079-6.963,0A5.02,5.02,0,0,0,1.417,3.656,5.011,5.011,0,0,0,.054,7.193c-.079,1.393-.079,5.57,0,6.963a4.994,4.994,0,0,0,1.363,3.536,5.034,5.034,0,0,0,3.536,1.363c1.393.079,5.57.079,6.963,0a4.994,4.994,0,0,0,3.536-1.363,5.027,5.027,0,0,0,1.363-3.536c.079-1.393.079-5.566,0-6.959Zm-1.8,8.454a2.848,2.848,0,0,1-1.6,1.6c-1.111.441-3.747.339-4.975.339s-3.867.1-4.975-.339a2.848,2.848,0,0,1-1.6-1.6c-.441-1.111-.339-3.747-.339-4.975s-.1-3.867.339-4.975a2.848,2.848,0,0,1,1.6-1.6c1.111-.441,3.747-.339,4.975-.339s3.867-.1,4.975.339a2.848,2.848,0,0,1,1.6,1.6c.441,1.111.339,3.747.339,4.975S15.456,14.543,15.016,15.651Z" transform="translate(0.005 -2.238)" fill="#707070"/></svg>