<svg xmlns="http://www.w3.org/2000/svg" width="16.771" height="11.611" viewBox="0 0 16.771 11.611"><path d="M20.009,10.339l-4.338,4.419a.078.078,0,0,0,0,.113L18.707,18.1a.523.523,0,0,1,0,.742.526.526,0,0,1-.742,0l-3.024-3.221a.083.083,0,0,0-.117,0l-.738.75a3.246,3.246,0,0,1-2.314.976,3.311,3.311,0,0,1-2.363-1l-.71-.722a.083.083,0,0,0-.117,0L5.56,18.845a.526.526,0,0,1-.742,0,.523.523,0,0,1,0-.742L7.854,14.87a.086.086,0,0,0,0-.113L3.512,10.339a.079.079,0,0,0-.137.056v8.841a1.294,1.294,0,0,0,1.29,1.29H18.856a1.294,1.294,0,0,0,1.29-1.29V10.4A.081.081,0,0,0,20.009,10.339Z" transform="translate(-3.375 -8.915)" fill="#fff"/><path d="M12.124,15.257A2.192,2.192,0,0,0,13.7,14.6l6.326-6.438a1.267,1.267,0,0,0-.8-.282H5.024a1.259,1.259,0,0,0-.8.282L10.551,14.6A2.192,2.192,0,0,0,12.124,15.257Z" transform="translate(-3.738 -7.875)" fill="#fff"/></svg>