<?xml version="1.0" encoding="utf-8"?>
<!-- Generator: Adobe Illustrator 17.1.0, SVG Export Plug-In . SVG Version: 6.00 Build 0)  -->
<!DOCTYPE svg PUBLIC "-//W3C//DTD SVG 1.1//EN" "http://www.w3.org/Graphics/SVG/1.1/DTD/svg11.dtd">
<svg version="1.1" id="Слой_1" xmlns="http://www.w3.org/2000/svg" xmlns:xlink="http://www.w3.org/1999/xlink" x="0px" y="0px"
	 viewBox="0 0 512 512" enable-background="new 0 0 512 512" xml:space="preserve">
<title>ionicons-v5-f</title>
<path fill="#707070" d="M384,336c-17.4,0-34.1,7.1-46.1,19.7l-148-83.3c2.9-10.8,2.9-22.1,0-32.9l148-83.3
	c24.5,25.4,64.9,26.1,90.2,1.6s26.1-64.9,1.6-90.2c-24.5-25.4-64.9-26.1-90.2-1.6c-16.7,16.1-23.3,40-17.4,62.3l-148,83.3
	c-24.5-25.5-65-26.4-90.5-1.9s-26.4,65-1.9,90.5s65,26.4,90.5,1.9c0.6-0.6,1.3-1.2,1.9-1.9l148,83.3c-9.1,34.2,11.3,69.2,45.4,78.3
	s69.2-11.3,78.3-45.4s-11.3-69.2-45.4-78.3C395.1,336.7,389.5,336,384,336z"/>
</svg>
