<svg xmlns="http://www.w3.org/2000/svg" width="20.566" height="14.461" viewBox="0 0 20.566 14.461"><path d="M21.187,6.763a2.584,2.584,0,0,0-1.818-1.83c-1.6-.433-8.035-.433-8.035-.433S4.9,4.5,3.3,4.933A2.584,2.584,0,0,0,1.48,6.763a27.109,27.109,0,0,0-.43,4.982,27.109,27.109,0,0,0,.43,4.982,2.546,2.546,0,0,0,1.818,1.8c1.6.433,8.035.433,8.035.433s6.431,0,8.035-.433a2.546,2.546,0,0,0,1.818-1.8,27.109,27.109,0,0,0,.43-4.982,27.109,27.109,0,0,0-.43-4.982ZM9.23,14.8V8.687l5.375,3.058L9.23,14.8Z" transform="translate(-1.05 -4.5)" fill="#707070"/></svg>