<svg xmlns="http://www.w3.org/2000/svg" width="219.036" height="219.036" viewBox="0 0 219.036 219.036"><g transform="translate(0 517.02)"><g transform="translate(0 -517.02)"><rect width="215.709" height="215.709" transform="translate(1.664 1.664)" fill="#00605b"/><path d="M219.036-297.984H0V-517.02H219.036ZM3.328-301.312H215.71v-212.38H3.328Z" transform="translate(0 517.02)" fill="#fff"/></g><g transform="translate(30.06 -355.606)"><path d="M26.422-418.639v-2.45h7.373c-.067,6.632-4.136,9.353-8.342,9.353a8.95,8.95,0,0,1-9.194-8.837,8.965,8.965,0,0,1,9.15-8.97,9.723,9.723,0,0,1,6.543,2.27l-1.461,2.159a7.21,7.21,0,0,0-5.038-1.821,6.029,6.029,0,0,0-6.136,6.386,6.183,6.183,0,0,0,6.16,6.2c2.9,0,5.1-1.821,5.306-4.295Z" transform="translate(-16.259 429.857)" fill="#fff"/><path d="M40.346-412l-1.553-3.328H30.9L29.371-412H26.158l8.723-17.717L43.559-412Zm-5.2-11.219a3.315,3.315,0,0,1-.292-.81,5.66,5.66,0,0,1-.338.81l-2.427,5.282H37.6Z" transform="translate(-7.857 429.713)" fill="#fff"/><path d="M45.794-412.316l-5.778-6.3h-.449v6.3H36.689v-17.02h3.6c3.147,0,7.216.808,7.216,5.262a5.294,5.294,0,0,1-4.45,5.036l6.72,6.722Zm-5.1-8.791c2.54,0,3.8-1.3,3.8-2.81,0-1.823-1.146-2.788-3.6-2.788H39.568v5.6Z" transform="translate(1.082 430.033)" fill="#fff"/><path d="M48.769-412.326v-14.389H43.755v-2.609H56.636v2.609h-4.99v14.389Z" transform="translate(7.08 430.043)" fill="#fff"/><path d="M52.207-412.348v-16.976h9.847v2.609h-6.97v4.047H60.7v2.607h-5.62v5.1h7.689v2.609Z" transform="translate(14.254 430.043)" fill="#fff"/><path d="M62.493-422.868,62.54-412.1H59.661l.024-17.493L72.32-417.945l-.046-11.174h2.879l-.022,17.651Z" transform="translate(20.581 429.816)" fill="#fff"/><path d="M70.339-412.316v-17.02h3.707c4.025,0,7.129,1.327,7.129,5.441,0,3.418-2.135,5.733-6.724,5.733H73.216v5.846Zm4.045-8.453c2.5,0,3.755-1.327,3.755-3.149,0-1.732-1.146-2.788-3.306-2.788H73.216v5.936Z" transform="translate(29.645 430.033)" fill="#fff"/><path d="M90.861-412l-1.551-3.328H81.417L79.888-412H76.675L85.4-429.713,94.076-412Zm-5.193-11.219a3.169,3.169,0,0,1-.292-.81,5.878,5.878,0,0,1-.338.81l-2.427,5.282h5.508Z" transform="translate(35.023 429.713)" fill="#fff"/><path d="M96.313-412.316l-5.778-6.3h-.451v6.3H87.208v-17.02h3.6c3.147,0,7.216.808,7.216,5.262a5.293,5.293,0,0,1-4.45,5.036l6.722,6.722Zm-5.1-8.791c2.54,0,3.8-1.3,3.8-2.81,0-1.823-1.146-2.788-3.6-2.788H90.085v5.6Z" transform="translate(43.963 430.033)" fill="#fff"/><path d="M105.464-412.316,97.979-419.2v6.881H95.1v-17.02h2.879v6.948l6.43-6.948h3.731l-8.185,8.32,9.738,8.7Z" transform="translate(50.662 430.033)" fill="#fff"/></g><g transform="translate(79.342 -333.795)"><path d="M48.571-408.21l-4.086-3.755v3.755h-1.57V-417.5h1.57v3.792L48-417.5h2.036l-4.467,4.541,5.313,4.748Z" transform="translate(-42.915 418.271)" fill="#fff"/><path d="M50.584-409.365a3.272,3.272,0,0,1-3.337-3.265,3.294,3.294,0,0,1,3.374-3.289,3.279,3.279,0,0,1,3.313,3.289A3.3,3.3,0,0,1,50.584-409.365ZM52.4-412.63a1.9,1.9,0,0,0-1.792-2.074,1.913,1.913,0,0,0-1.865,2.111,1.923,1.923,0,0,0,1.83,2.024A1.829,1.829,0,0,0,52.4-412.63Z" transform="translate(-39.238 419.611)" fill="#fff"/><path d="M51.532-409.55v-6.2H52.98v.956c.135-.294.625-1.13,1.35-1.13a2.054,2.054,0,0,1,1.1.307l-.527,1.35a1.384,1.384,0,0,0-.821-.294c-.7,0-1.106.786-1.106,1.559v3.448Z" transform="translate(-35.601 419.611)" fill="#fff"/><path d="M58.179-409.55v-3.374c0-1.08-.194-1.719-1.2-1.719a2.1,2.1,0,0,0-1.424.714v4.38H54.106v-6.2h1.448v.636a3.016,3.016,0,0,1,1.989-.81c1.35,0,2.085.675,2.085,2.233v4.136Z" transform="translate(-33.416 419.611)" fill="#fff"/><path d="M63.786-410.188a4.226,4.226,0,0,1-2.614.823,3.144,3.144,0,0,1-3.424-3.239,3.139,3.139,0,0,1,3.241-3.315,2.948,2.948,0,0,1,3.019,3.215v.6H59.246c.085.8.81,1.535,2.172,1.535a3.047,3.047,0,0,0,1.914-.649Zm-1.289-3.08a1.491,1.491,0,0,0-1.535-1.509,1.65,1.65,0,0,0-1.7,1.509Z" transform="translate(-30.325 419.611)" fill="#fff"/><path d="M65.862-415.825h1.448v5.521a3.99,3.99,0,0,1-2.749.86c-1.631,0-2.784-.8-2.784-2.405v-3.975h1.448v3.62c0,1.226.7,1.557,1.485,1.557a1.947,1.947,0,0,0,1.154-.331Z" transform="translate(-26.906 419.691)" fill="#fff"/><path d="M65.6-417.916h1.448v4.245a3.435,3.435,0,0,1,1.854-.553c1.865,0,2.836,1.57,2.836,3.228a3.261,3.261,0,0,1-3.487,3.326,4.917,4.917,0,0,1-2.651-.773Zm1.448,8.749a2.285,2.285,0,0,0,1.18.294,1.9,1.9,0,0,0,1.976-2.087c0-1.08-.566-2.048-1.62-2.048a2.456,2.456,0,0,0-1.536.6Z" transform="translate(-23.657 417.916)" fill="#fff"/><path d="M73.664-415.825h1.448v5.521a3.991,3.991,0,0,1-2.747.86c-1.632,0-2.786-.8-2.786-2.405v-3.975h1.448v3.62c0,1.226.7,1.557,1.485,1.557a1.947,1.947,0,0,0,1.154-.331Z" transform="translate(-20.283 419.691)" fill="#fff"/><path d="M73.419-409.55v-6.2h1.448v.956c.135-.294.625-1.13,1.348-1.13a2.062,2.062,0,0,1,1.106.307l-.527,1.35a1.384,1.384,0,0,0-.821-.294c-.7,0-1.106.786-1.106,1.559v3.448Z" transform="translate(-17.023 419.611)" fill="#fff"/><path d="M80.359-410.1a2.505,2.505,0,0,1-1.682.738,3.055,3.055,0,0,1-2.91-3.278,3.2,3.2,0,0,1,3.413-3.276,5.075,5.075,0,0,1,2.627.64v6.023a2.741,2.741,0,0,1-2.982,3.032,5.3,5.3,0,0,1-2.8-.749l.6-1.1a3.853,3.853,0,0,0,2.161.651,1.438,1.438,0,0,0,1.571-1.632Zm0-4.369a2.791,2.791,0,0,0-1.131-.257,1.863,1.863,0,0,0-1.938,2.085c0,.886.5,2.063,1.657,2.063a1.633,1.633,0,0,0,1.413-.751Z" transform="translate(-15.03 419.611)" fill="#fff"/></g><g transform="translate(50.384 -489.732)"><g transform="translate(40.469 20.623)"><path d="M88.406-412.575A39.31,39.31,0,0,1,49.141-451.84a39.31,39.31,0,0,1,39.265-39.265,39.309,39.309,0,0,1,39.265,39.265A39.309,39.309,0,0,1,88.406-412.575Zm0-75.2A35.978,35.978,0,0,0,52.469-451.84,35.978,35.978,0,0,0,88.406-415.9a35.98,35.98,0,0,0,35.939-35.937A35.98,35.98,0,0,0,88.406-487.777Z" transform="translate(-49.141 491.105)" fill="#fff"/></g><g transform="translate(20.235)"><path d="M77.462-423.728A39.31,39.31,0,0,1,38.2-462.995,39.309,39.309,0,0,1,77.462-502.26a39.309,39.309,0,0,1,39.265,39.265A39.31,39.31,0,0,1,77.462-423.728Zm0-75.2a35.98,35.98,0,0,0-35.939,35.937,35.98,35.98,0,0,0,35.939,35.939A35.979,35.979,0,0,0,113.4-462.995,35.978,35.978,0,0,0,77.462-498.932Z" transform="translate(-38.197 502.26)" fill="#fff"/></g><g transform="translate(0 20.623)"><path d="M66.517-412.575A39.31,39.31,0,0,1,27.252-451.84a39.31,39.31,0,0,1,39.265-39.265,39.31,39.31,0,0,1,39.267,39.265A39.31,39.31,0,0,1,66.517-412.575Zm0-75.2A35.978,35.978,0,0,0,30.58-451.84,35.978,35.978,0,0,0,66.517-415.9a35.979,35.979,0,0,0,35.939-35.937A35.979,35.979,0,0,0,66.517-487.777Z" transform="translate(-27.252 491.105)" fill="#fff"/></g><g transform="translate(20.235 40.469)"><path d="M77.462-401.841A39.309,39.309,0,0,1,38.2-441.106a39.309,39.309,0,0,1,39.265-39.265,39.309,39.309,0,0,1,39.265,39.265A39.309,39.309,0,0,1,77.462-401.841Zm0-75.2a35.981,35.981,0,0,0-35.939,35.939,35.98,35.98,0,0,0,35.939,35.937A35.978,35.978,0,0,0,113.4-441.106,35.98,35.98,0,0,0,77.462-477.045Z" transform="translate(-38.197 480.371)" fill="#fff"/></g></g></g></svg>