<svg xmlns="http://www.w3.org/2000/svg" width="216.448" height="216.446" viewBox="0 0 216.448 216.446"><rect width="213.158" height="213.158" transform="translate(1.645 1.644)" fill="#af9e86"/><path d="M216.448,216.446H0V0H216.448ZM3.29,213.158H213.158V3.289H3.29Z" fill="#fff"/><g transform="translate(28.994 159.506)"><path d="M25.913,98.252V95.832H33.2c-.066,6.553-4.087,9.243-8.241,9.243a8.8,8.8,0,1,1-.046-17.6,9.589,9.589,0,0,1,6.466,2.245l-1.443,2.134a7.115,7.115,0,0,0-4.977-1.8,5.959,5.959,0,0,0-6.065,6.31,6.113,6.113,0,0,0,6.087,6.133c2.866,0,5.044-1.8,5.245-4.246Z" transform="translate(-15.87 -87.166)" fill="#fff"/><path d="M39.788,104.815l-1.533-3.289h-7.8l-1.511,3.289H25.77l8.618-17.508,8.578,17.508ZM34.656,93.729a3.082,3.082,0,0,1-.289-.8,5.715,5.715,0,0,1-.334.8l-2.4,5.22h5.444Z" transform="translate(-7.683 -87.307)" fill="#fff"/><path d="M45.3,104.5,39.59,98.282h-.446V104.5H36.3V87.684h3.553c3.109,0,7.131.8,7.131,5.2a5.228,5.228,0,0,1-4.4,4.977L49.23,104.5Zm-5.044-8.687c2.51,0,3.756-1.288,3.756-2.777,0-1.8-1.135-2.755-3.557-2.755h-1.31v5.532Z" transform="translate(1.025 -86.995)" fill="#fff"/><path d="M48.321,104.493V90.274H43.366V87.7H56.1v2.578H51.165v14.219Z" transform="translate(6.868 -86.985)" fill="#fff"/><path d="M51.818,104.471V87.7H61.55v2.578H54.663v4h5.554v2.578H54.663v5.042h7.6v2.578Z" transform="translate(13.857 -86.985)" fill="#fff"/><path d="M62.073,94.073l.044,10.642H59.272L59.3,87.428l12.485,11.51L71.737,87.9H74.58l-.02,17.442Z" transform="translate(20.021 -87.207)" fill="#fff"/><path d="M69.95,104.5V87.684h3.665c3.977,0,7.045,1.312,7.045,5.377,0,3.378-2.112,5.665-6.645,5.665h-1.22V104.5Zm4-8.353c2.465,0,3.711-1.312,3.711-3.111,0-1.712-1.133-2.755-3.267-2.755h-1.6V96.15Z" transform="translate(28.852 -86.995)" fill="#fff"/><path d="M90.306,104.815l-1.535-3.289h-7.8l-1.513,3.289H76.286l8.62-17.508,8.576,17.508ZM85.172,93.729a3.222,3.222,0,0,1-.289-.8,5.687,5.687,0,0,1-.332.8l-2.4,5.22h5.444Z" transform="translate(34.091 -87.307)" fill="#fff"/><path d="M95.817,104.5l-5.709-6.221h-.444V104.5H86.819V87.684h3.555c3.109,0,7.131.8,7.131,5.2a5.228,5.228,0,0,1-4.4,4.977l6.641,6.643Zm-5.044-8.687c2.51,0,3.756-1.288,3.756-2.777,0-1.8-1.133-2.755-3.555-2.755h-1.31v5.532Z" transform="translate(42.801 -86.995)" fill="#fff"/><path d="M104.952,104.5l-7.4-6.8v6.8H94.712V87.684h2.845V94.55l6.352-6.866H107.6L99.51,95.905l9.621,8.6Z" transform="translate(49.329 -86.995)" fill="#fff"/></g><g transform="translate(75.23 181.058)"><path d="M46.767,108.7l-4.038-3.711V108.7H41.178V99.522h1.551v3.747L46.2,99.522H48.21L43.8,104.009l5.251,4.692Z" transform="translate(-41.178 -98.758)" fill="#fff"/><path d="M48.806,107.578a3.239,3.239,0,1,1,3.312-3.226A3.233,3.233,0,0,1,48.806,107.578Zm1.8-3.226a1.823,1.823,0,1,0-3.614.037,1.9,1.9,0,0,0,1.809,2A1.809,1.809,0,0,0,50.6,104.351Z" transform="translate(-37.596 -97.453)" fill="#fff"/><path d="M49.8,107.395v-6.122h1.431v.945c.133-.29.618-1.116,1.334-1.116a2.03,2.03,0,0,1,1.091.3l-.521,1.336a1.355,1.355,0,0,0-.811-.292c-.692,0-1.093.776-1.093,1.54v3.407Z" transform="translate(-34.052 -97.453)" fill="#fff"/><path d="M56.394,107.395v-3.334c0-1.067-.192-1.7-1.188-1.7a2.085,2.085,0,0,0-1.407.7v4.328h-1.43v-6.122H53.8v.63a2.972,2.972,0,0,1,1.966-.8c1.334,0,2.059.667,2.059,2.207v4.087Z" transform="translate(-31.924 -97.453)" fill="#fff"/><path d="M61.978,106.766a4.19,4.19,0,0,1-2.583.811,3.24,3.24,0,1,1-.181-6.477,2.912,2.912,0,0,1,2.982,3.177v.6h-4.7c.084.787.8,1.516,2.147,1.516a3,3,0,0,0,1.891-.643ZM60.7,103.723a1.473,1.473,0,0,0-1.516-1.493,1.631,1.631,0,0,0-1.684,1.493Z" transform="translate(-28.912 -97.453)" fill="#fff"/><path d="M64.077,101.2h1.43v5.455a3.945,3.945,0,0,1-2.717.85c-1.611,0-2.751-.789-2.751-2.377V101.2h1.43v3.577c0,1.211.691,1.54,1.467,1.54a1.922,1.922,0,0,0,1.14-.329Z" transform="translate(-25.581 -97.375)" fill="#fff"/><path d="M63.866,99.1H65.3V103.3a3.394,3.394,0,0,1,1.832-.546,2.9,2.9,0,0,1,2.8,3.19,3.223,3.223,0,0,1-3.446,3.287,4.859,4.859,0,0,1-2.62-.764Zm1.431,8.645a2.258,2.258,0,0,0,1.166.292,1.876,1.876,0,0,0,1.951-2.063c0-1.067-.557-2.026-1.6-2.026a2.426,2.426,0,0,0-1.516.594Z" transform="translate(-22.416 -99.104)" fill="#fff"/><path d="M71.879,101.2h1.431v5.455a3.944,3.944,0,0,1-2.715.85c-1.613,0-2.753-.789-2.753-2.377V101.2h1.43v3.577c0,1.211.691,1.54,1.467,1.54a1.922,1.922,0,0,0,1.14-.329Z" transform="translate(-19.129 -97.375)" fill="#fff"/><path d="M71.682,107.395v-6.122h1.43v.945c.133-.29.618-1.116,1.332-1.116a2.038,2.038,0,0,1,1.093.3l-.521,1.336a1.356,1.356,0,0,0-.811-.292c-.692,0-1.093.776-1.093,1.54v3.407Z" transform="translate(-15.953 -97.453)" fill="#fff"/><path d="M78.568,106.85a2.473,2.473,0,0,1-1.663.727,3.018,3.018,0,0,1-2.876-3.237A3.166,3.166,0,0,1,77.4,101.1a5.015,5.015,0,0,1,2.6.632v5.954a2.708,2.708,0,0,1-2.947,2.994,5.234,5.234,0,0,1-2.766-.74l.594-1.091a3.808,3.808,0,0,0,2.136.643,1.421,1.421,0,0,0,1.553-1.613Zm0-4.319a2.792,2.792,0,0,0-1.118-.252,1.84,1.84,0,0,0-1.915,2.061c0,.873.5,2.037,1.637,2.037a1.614,1.614,0,0,0,1.4-.742Z" transform="translate(-14.011 -97.453)" fill="#fff"/></g><g transform="translate(49.426 26.966)"><g transform="translate(39.99 20.38)"><path d="M87.746,103.517a38.8,38.8,0,1,1,38.8-38.8A38.846,38.846,0,0,1,87.746,103.517Zm0-74.313a35.512,35.512,0,1,0,35.512,35.512A35.552,35.552,0,0,0,87.746,29.2Z" transform="translate(-48.943 -25.915)" fill="#fff"/></g><g transform="translate(19.996)"><path d="M76.8,92.363a38.8,38.8,0,1,1,38.8-38.8A38.847,38.847,0,0,1,76.8,92.363Zm0-74.315a35.513,35.513,0,1,0,35.51,35.514A35.554,35.554,0,0,0,76.8,18.049Z" transform="translate(-37.999 -14.76)" fill="#fff"/></g><g transform="translate(0 20.38)"><path d="M65.857,103.517a38.8,38.8,0,1,1,38.8-38.8A38.847,38.847,0,0,1,65.857,103.517Zm0-74.313a35.512,35.512,0,1,0,35.512,35.512A35.553,35.553,0,0,0,65.857,29.2Z" transform="translate(-27.054 -25.915)" fill="#fff"/></g><g transform="translate(19.996 39.99)"><path d="M76.8,114.251a38.8,38.8,0,1,1,38.8-38.8A38.846,38.846,0,0,1,76.8,114.251Zm0-74.313a35.513,35.513,0,1,0,35.51,35.512A35.553,35.553,0,0,0,76.8,39.938Z" transform="translate(-37.999 -36.649)" fill="#fff"/></g></g></svg>