<svg xmlns="http://www.w3.org/2000/svg" width="215.528" height="215.526" viewBox="0 0 215.528 215.526"><g transform="translate(0 249.702)"><g transform="translate(0 -249.702)"><rect width="212.252" height="212.252" transform="translate(1.638 1.638)" fill="#163253"/><path d="M215.528-34.176H0V-249.7H215.528ZM3.275-37.448H212.252V-246.427H3.275Z" transform="translate(0 249.702)" fill="#fff"/></g><g transform="translate(29.578 -90.872)"><path d="M26.259-151.494v-2.41h7.257c-.067,6.525-4.071,9.2-8.208,9.2a8.807,8.807,0,0,1-9.049-8.694,8.823,8.823,0,0,1,9-8.829,9.571,9.571,0,0,1,6.44,2.236l-1.437,2.125a7.1,7.1,0,0,0-4.957-1.792,5.931,5.931,0,0,0-6.038,6.283,6.084,6.084,0,0,0,6.062,6.105c2.852,0,5.021-1.792,5.221-4.226Z" transform="translate(-16.259 162.532)" fill="#fff"/><path d="M40.119-144.961l-1.528-3.275H30.825l-1.5,3.275H26.159l8.581-17.433,8.541,17.433ZM35.008-156a3.081,3.081,0,0,1-.287-.795,5.768,5.768,0,0,1-.333.795L32-150.8h5.419Z" transform="translate(-8.149 162.394)" fill="#fff"/><path d="M45.65-145.269l-5.685-6.2h-.442v6.2H36.69v-16.749h3.538c3.1,0,7.1.8,7.1,5.177a5.21,5.21,0,0,1-4.381,4.957l6.615,6.615Zm-5.023-8.65c2.5,0,3.74-1.283,3.74-2.767,0-1.792-1.128-2.743-3.542-2.743h-1.3v5.51Z" transform="translate(0.478 162.702)" fill="#fff"/><path d="M48.689-145.279v-14.161H43.755v-2.567H56.431v2.567h-4.91v14.161Z" transform="translate(6.265 162.712)" fill="#fff"/><path d="M52.208-145.3v-16.706H61.9v2.567H55.039v3.984h5.53v2.565h-5.53v5.023H62.6v2.567Z" transform="translate(13.19 162.712)" fill="#fff"/><path d="M62.449-155.658l.044,10.6H59.662l.022-17.213,12.432,11.459-.044-11H74.9l-.022,17.368Z" transform="translate(19.296 162.493)" fill="#fff"/><path d="M70.339-145.269v-16.749h3.649c3.96,0,7.015,1.306,7.015,5.356,0,3.362-2.1,5.64-6.616,5.64H73.171v5.754Zm3.982-8.319c2.454,0,3.695-1.306,3.695-3.1,0-1.7-1.128-2.743-3.253-2.743H73.171v5.841Z" transform="translate(28.043 162.702)" fill="#fff"/><path d="M90.635-144.961l-1.528-3.275H81.343l-1.5,3.275H76.675l8.583-17.433L93.8-144.961ZM85.525-156a3.159,3.159,0,0,1-.289-.795A5.738,5.738,0,0,1,84.9-156l-2.39,5.2h5.421Z" transform="translate(33.233 162.394)" fill="#fff"/><path d="M96.167-145.269l-5.685-6.2H90.04v6.2H87.208v-16.749h3.54c3.1,0,7.1.8,7.1,5.177a5.208,5.208,0,0,1-4.379,4.957l6.615,6.615Zm-5.021-8.65c2.5,0,3.738-1.283,3.738-2.767,0-1.792-1.128-2.743-3.54-2.743h-1.3v5.51Z" transform="translate(41.861 162.702)" fill="#fff"/><path d="M105.3-145.269l-7.366-6.771v6.771H95.1v-16.749h2.832v6.837l6.325-6.837h3.673l-8.054,8.186,9.582,8.563Z" transform="translate(48.327 162.702)" fill="#fff"/></g><g transform="translate(78.072 -69.413)"><path d="M48.481-141.039l-4.02-3.695v3.695H42.916v-9.141H44.46v3.731l3.455-3.731h2l-4.4,4.468,5.228,4.673Z" transform="translate(-42.916 150.94)" fill="#fff"/><path d="M50.53-142.152a3.218,3.218,0,0,1-3.282-3.211,3.241,3.241,0,0,1,3.32-3.238,3.228,3.228,0,0,1,3.26,3.238A3.246,3.246,0,0,1,50.53-142.152Zm1.788-3.211a1.866,1.866,0,0,0-1.763-2.041,1.882,1.882,0,0,0-1.836,2.076,1.893,1.893,0,0,0,1.8,1.994A1.8,1.8,0,0,0,52.318-145.363Z" transform="translate(-39.367 152.234)" fill="#fff"/><path d="M51.533-142.332v-6.1h1.424v.942c.133-.289.615-1.113,1.326-1.113a2.029,2.029,0,0,1,1.088.3l-.518,1.33a1.362,1.362,0,0,0-.808-.289c-.689,0-1.088.773-1.088,1.534v3.393Z" transform="translate(-35.857 152.234)" fill="#fff"/><path d="M58.115-142.332v-3.32c0-1.062-.191-1.692-1.182-1.692a2.066,2.066,0,0,0-1.4.7v4.31H54.107v-6.1h1.424v.628a2.967,2.967,0,0,1,1.956-.8c1.33,0,2.052.666,2.052,2.2v4.071Z" transform="translate(-33.749 152.234)" fill="#fff"/><path d="M63.69-142.96a4.177,4.177,0,0,1-2.572.808,3.093,3.093,0,0,1-3.369-3.187,3.089,3.089,0,0,1,3.187-3.262,2.9,2.9,0,0,1,2.971,3.165v.591H59.223c.084.786.8,1.51,2.138,1.51a3,3,0,0,0,1.883-.64Zm-1.268-3.031a1.469,1.469,0,0,0-1.51-1.484,1.623,1.623,0,0,0-1.677,1.484Z" transform="translate(-30.765 152.234)" fill="#fff"/><path d="M65.8-148.507h1.424v5.434a3.928,3.928,0,0,1-2.705.844c-1.6,0-2.74-.784-2.74-2.365v-3.913H63.2v3.562c0,1.206.688,1.534,1.461,1.534a1.9,1.9,0,0,0,1.135-.327Z" transform="translate(-27.465 152.311)" fill="#fff"/><path d="M65.6-150.6h1.424v4.177a3.391,3.391,0,0,1,1.825-.544,2.887,2.887,0,0,1,2.789,3.178,3.207,3.207,0,0,1-3.429,3.271,4.833,4.833,0,0,1-2.609-.76Zm1.424,8.61a2.249,2.249,0,0,0,1.161.289,1.868,1.868,0,0,0,1.943-2.054c0-1.062-.555-2.016-1.594-2.016a2.415,2.415,0,0,0-1.51.591Z" transform="translate(-24.33 150.598)" fill="#fff"/><path d="M73.6-148.507h1.424v5.434a3.928,3.928,0,0,1-2.705.844c-1.6,0-2.74-.784-2.74-2.365v-3.913H71v3.562c0,1.206.688,1.534,1.461,1.534a1.9,1.9,0,0,0,1.135-.327Z" transform="translate(-21.074 152.311)" fill="#fff"/><path d="M73.419-142.332v-6.1h1.426v.942c.133-.289.615-1.113,1.326-1.113a2.029,2.029,0,0,1,1.088.3l-.518,1.33a1.368,1.368,0,0,0-.81-.289c-.689,0-1.086.773-1.086,1.534v3.393Z" transform="translate(-17.928 152.234)" fill="#fff"/><path d="M80.285-142.876a2.459,2.459,0,0,1-1.655.724,3,3,0,0,1-2.862-3.224,3.154,3.154,0,0,1,3.358-3.225,4.994,4.994,0,0,1,2.585.629v5.929a2.7,2.7,0,0,1-2.936,2.983,5.207,5.207,0,0,1-2.752-.739l.591-1.084a3.808,3.808,0,0,0,2.127.639,1.414,1.414,0,0,0,1.544-1.606Zm0-4.3a2.73,2.73,0,0,0-1.112-.253,1.834,1.834,0,0,0-1.908,2.052c0,.87.5,2.028,1.632,2.028a1.6,1.6,0,0,0,1.388-.737Z" transform="translate(-16.004 152.234)" fill="#fff"/></g><g transform="translate(49.576 -222.849)"><g transform="translate(39.82 20.291)"><path d="M87.777-146.515a38.678,38.678,0,0,1-38.636-38.634,38.68,38.68,0,0,1,38.636-38.638,38.684,38.684,0,0,1,38.64,38.638A38.682,38.682,0,0,1,87.777-146.515Zm0-74a35.4,35.4,0,0,0-35.36,35.363,35.4,35.4,0,0,0,35.36,35.361,35.4,35.4,0,0,0,35.363-35.361A35.4,35.4,0,0,0,87.777-220.512Z" transform="translate(-49.141 223.787)" fill="#fff"/></g><g transform="translate(19.911)"><path d="M76.833-157.669A38.679,38.679,0,0,1,38.2-196.305a38.679,38.679,0,0,1,38.636-38.636,38.679,38.679,0,0,1,38.636,38.636A38.679,38.679,0,0,1,76.833-157.669Zm0-74a35.4,35.4,0,0,0-35.36,35.363,35.4,35.4,0,0,0,35.36,35.361,35.4,35.4,0,0,0,35.361-35.361A35.4,35.4,0,0,0,76.833-231.668Z" transform="translate(-38.197 234.941)" fill="#fff"/></g><g transform="translate(0 20.291)"><path d="M65.89-146.515a38.68,38.68,0,0,1-38.638-38.634A38.682,38.682,0,0,1,65.89-223.787a38.68,38.68,0,0,1,38.636,38.638A38.678,38.678,0,0,1,65.89-146.515Zm0-74a35.4,35.4,0,0,0-35.361,35.363A35.4,35.4,0,0,0,65.89-149.788a35.4,35.4,0,0,0,35.36-35.361A35.4,35.4,0,0,0,65.89-220.512Z" transform="translate(-27.252 223.787)" fill="#fff"/></g><g transform="translate(19.911 39.818)"><path d="M76.833-135.779A38.679,38.679,0,0,1,38.2-174.415a38.68,38.68,0,0,1,38.636-38.638,38.68,38.68,0,0,1,38.636,38.638A38.679,38.679,0,0,1,76.833-135.779Zm0-74a35.4,35.4,0,0,0-35.36,35.363,35.4,35.4,0,0,0,35.36,35.361,35.4,35.4,0,0,0,35.361-35.361A35.4,35.4,0,0,0,76.833-209.779Z" transform="translate(-38.197 213.053)" fill="#fff"/></g></g></g></svg>