<svg xmlns="http://www.w3.org/2000/svg" width="15.487" height="15.485" viewBox="0 0 15.487 15.485"><path d="M19.53,16.628a13.008,13.008,0,0,0-2.717-1.818c-.814-.391-1.113-.383-1.689.032-.48.347-.79.669-1.343.548a8.009,8.009,0,0,1-2.7-2,7.951,7.951,0,0,1-2-2.7c-.117-.556.206-.863.548-1.342.415-.577.427-.875.032-1.689A12.751,12.751,0,0,0,7.85,4.949C7.257,4.356,7.124,4.485,6.8,4.6a5.988,5.988,0,0,0-.964.512A2.907,2.907,0,0,0,4.677,6.335c-.23.5-.5,1.419.859,3.83a21.371,21.371,0,0,0,3.757,5.011h0l0,0,0,0h0a21.455,21.455,0,0,0,5.011,3.757c2.411,1.355,3.334,1.089,3.83.859a2.857,2.857,0,0,0,1.222-1.157,5.987,5.987,0,0,0,.512-.964C19.993,17.354,20.126,17.22,19.53,16.628Z" transform="translate(-4.49 -4.503)" fill="#fff"/></svg>