<svg xmlns="http://www.w3.org/2000/svg" width="28.391" height="18.25" viewBox="0 0 28.391 18.25"><g transform="translate(-1568.5 -1284)"><path d="M16.432,7.875c-5.095,0-9.112,3.206-13.916,8.447a1,1,0,0,0-.006,1.35c4.113,4.543,7.737,8.453,13.922,8.453,6.109,0,10.69-4.924,13.947-8.491a.994.994,0,0,0,.032-1.312C27.09,12.3,22.5,7.875,16.432,7.875ZM16.711,22.7a5.7,5.7,0,1,1,5.431-5.431A5.705,5.705,0,0,1,16.711,22.7Z" transform="translate(1566.248 1276.125)"/><path d="M17.556,14.577a2.977,2.977,0,0,1,.2-1.071c-.063,0-.127-.006-.2-.006a4.055,4.055,0,1,0,4.056,4.056c0-.082-.006-.165-.006-.247a2.81,2.81,0,0,1-1.153.247A2.942,2.942,0,0,1,17.556,14.577Z" transform="translate(1565.137 1275.569)"/></g></svg>