<svg xmlns="http://www.w3.org/2000/svg" width="16.635" height="16.635" viewBox="0 0 16.635 16.635"><path d="M15.447,2.25H1.184A1.193,1.193,0,0,0,0,3.449V17.686a1.193,1.193,0,0,0,1.184,1.2H15.447a1.2,1.2,0,0,0,1.188-1.2V3.449A1.2,1.2,0,0,0,15.447,2.25ZM5.028,16.508H2.562V8.57H5.031v7.939ZM3.795,7.486a1.43,1.43,0,1,1,1.43-1.43,1.43,1.43,0,0,1-1.43,1.43ZM14.27,16.508H11.8V12.647c0-.921-.019-2.105-1.281-2.105-1.285,0-1.482,1-1.482,2.039v3.929H6.576V8.57H8.941V9.654h.033A2.6,2.6,0,0,1,11.31,8.373c2.5,0,2.959,1.645,2.959,3.784Z" transform="translate(0 -2.25)" fill="#707070"/></svg>