<svg xmlns="http://www.w3.org/2000/svg" width="19.281" height="15.66" viewBox="0 0 19.281 15.66"><path d="M17.3,7.283c.012.171.012.343.012.514A11.166,11.166,0,0,1,6.068,19.04,11.167,11.167,0,0,1,0,17.266a8.174,8.174,0,0,0,.954.049A7.914,7.914,0,0,0,5.86,15.627a3.959,3.959,0,0,1-3.695-2.74,4.983,4.983,0,0,0,.746.061,4.179,4.179,0,0,0,1.04-.135A3.952,3.952,0,0,1,.783,8.935V8.886a3.98,3.98,0,0,0,1.786.5A3.957,3.957,0,0,1,1.346,4.1,11.232,11.232,0,0,0,9.494,8.238a4.461,4.461,0,0,1-.1-.905,3.955,3.955,0,0,1,6.839-2.7,7.78,7.78,0,0,0,2.508-.954,3.941,3.941,0,0,1-1.737,2.178,7.922,7.922,0,0,0,2.276-.612A8.494,8.494,0,0,1,17.3,7.283Z" transform="translate(0 -3.381)" fill="#707070"/></svg>