<svg xmlns="http://www.w3.org/2000/svg" width="900.043" height="900.043" viewBox="0 0 900.043 900.043">
  <g id="Gruppe_213" data-name="Gruppe 213" opacity="0.02">
    <g id="Gruppe_114" data-name="Gruppe 114" transform="translate(306.069 155.985)">
      <g id="Gruppe_113" data-name="Gruppe 113">
        <path id="Pfad_499" data-name="Pfad 499" d="M345.937-406.841c-163.76,0-296.994-133.235-296.994-296.981S182.177-1000.8,345.937-1000.8s296.98,133.22,296.98,296.979S509.7-406.841,345.937-406.841Zm0-568.791c-149.888,0-271.824,121.936-271.824,271.81s121.936,271.81,271.824,271.81c149.86,0,271.8-121.936,271.8-271.81S495.8-975.632,345.937-975.632Z" transform="translate(-48.943 1000.802)" fill="#575756"/>
      </g>
    </g>
    <g id="Gruppe_116" data-name="Gruppe 116" transform="translate(153.035)">
      <g id="Gruppe_115" data-name="Gruppe 115">
        <path id="Pfad_500" data-name="Pfad 500" d="M334.979-418C171.219-418,38-551.217,38-714.978s133.22-296.979,296.98-296.979S631.973-878.737,631.973-714.978,498.739-418,334.979-418Zm0-568.79c-149.874,0-271.824,121.935-271.824,271.809S185.1-443.168,334.979-443.168s271.81-121.935,271.81-271.81S484.853-986.787,334.979-986.787Z" transform="translate(-37.999 1011.957)" fill="#575756"/>
      </g>
    </g>
    <g id="Gruppe_118" data-name="Gruppe 118" transform="translate(0 155.985)">
      <g id="Gruppe_117" data-name="Gruppe 117">
        <path id="Pfad_501" data-name="Pfad 501" d="M324.021-406.841c-163.746,0-296.966-133.235-296.966-296.981S160.275-1000.8,324.021-1000.8s296.994,133.22,296.994,296.979S487.781-406.841,324.021-406.841Zm0-568.791c-149.874,0-271.81,121.936-271.81,271.81s121.936,271.81,271.81,271.81,271.81-121.936,271.81-271.81S473.909-975.632,324.021-975.632Z" transform="translate(-27.055 1000.802)" fill="#575756"/>
      </g>
    </g>
    <g id="Gruppe_120" data-name="Gruppe 120" transform="translate(153.035 306.083)">
      <g id="Gruppe_119" data-name="Gruppe 119">
        <path id="Pfad_502" data-name="Pfad 502" d="M334.979-396.108C171.219-396.108,38-529.329,38-693.088s133.22-296.979,296.98-296.979,296.994,133.22,296.994,296.979S498.739-396.108,334.979-396.108Zm0-568.8c-149.874,0-271.824,121.95-271.824,271.823S185.1-421.279,334.979-421.279s271.81-121.935,271.81-271.81S484.853-964.912,334.979-964.912Z" transform="translate(-37.999 990.068)" fill="#575756"/>
      </g>
    </g>
  </g>
</svg>
