<svg xmlns="http://www.w3.org/2000/svg" width="181.666" height="181.595" viewBox="0 0 181.666 181.595">
  <g id="invest-first-circle" transform="translate(0 0)">
    <path id="Контур_452" data-name="Контур 452" d="M316.121,609.178v18.608a72.219,72.219,0,1,1-71.961,93.652l-9.2,2.465-8.775,2.35a90.833,90.833,0,1,0,89.936-117.075Z" transform="translate(-222.298 -609.174)" fill="#fff"/>
    <path id="Контур_453" data-name="Контур 453" d="M265.686,639.912l-2.211-2.634-9.748-11.617a90.745,90.745,0,0,0-27.921,88.452l17.984-4.819a72.172,72.172,0,0,1,21.9-69.381Z" transform="translate(-223.403 -602.625)" fill="#fff"/>
    <path id="Контур_454" data-name="Контур 454" d="M301.555,609.175A90.385,90.385,0,0,0,248.283,628.5l11.964,14.258a71.857,71.857,0,0,1,41.308-14.978Z" transform="translate(-213.518 -609.175)" fill="#fff"/>
  </g>
</svg>
