<svg xmlns="http://www.w3.org/2000/svg" width="215.174" height="215.174" viewBox="0 0 215.174 215.174"><g transform="translate(0 1026.717)"><path d="M215.174-811.543H0v-215.174H215.174Zm-211.9-3.269H211.9V-1023.45H3.269Z" fill="#575756"/><g transform="translate(28.823 -868.149)"><path d="M25.854-928.528v-2.407H33.1c-.065,6.515-4.063,9.188-8.193,9.188a8.794,8.794,0,0,1-9.034-8.682,8.808,8.808,0,0,1,8.988-8.812,9.547,9.547,0,0,1,6.428,2.23l-1.435,2.121a7.076,7.076,0,0,0-4.947-1.789,5.924,5.924,0,0,0-6.03,6.273,6.075,6.075,0,0,0,6.052,6.1c2.85,0,5.015-1.789,5.214-4.219Z" transform="translate(-15.87 939.548)" fill="#575756"/><path d="M39.706-922.005l-1.524-3.269H30.429l-1.5,3.269H25.77l8.567-17.4,8.527,17.4Zm-5.1-11.022a3.076,3.076,0,0,1-.287-.794,5.666,5.666,0,0,1-.332.794L31.6-927.837h5.412Z" transform="translate(-7.789 939.41)" fill="#575756"/><path d="M45.247-922.313,39.571-928.5h-.443v6.184H36.3v-16.72h3.533c3.091,0,7.089.794,7.089,5.167a5.2,5.2,0,0,1-4.372,4.949l6.6,6.6Zm-5.015-8.636c2.5,0,3.732-1.28,3.732-2.763,0-1.789-1.126-2.737-3.534-2.737h-1.3v5.5Z" transform="translate(0.807 939.718)" fill="#575756"/><path d="M48.293-922.322v-14.135H43.367v-2.565H56.022v2.565h-4.9v14.135Z" transform="translate(6.573 939.727)" fill="#575756"/><path d="M51.819-922.344v-16.678h9.675v2.565H54.647v3.976h5.521v2.561H54.647v5.014H62.2v2.563Z" transform="translate(13.472 939.727)" fill="#575756"/><path d="M62.057-932.683,62.1-922.1H59.273l.024-17.185,12.412,11.442-.044-10.977h2.826l-.02,17.339Z" transform="translate(19.556 939.509)" fill="#575756"/><path d="M69.952-922.313v-16.72H73.6c3.954,0,7,1.3,7,5.345,0,3.358-2.1,5.632-6.6,5.632H72.78v5.743Zm3.976-8.3c2.45,0,3.689-1.3,3.689-3.095,0-1.7-1.126-2.737-3.247-2.737H72.78v5.832Z" transform="translate(28.272 939.718)" fill="#575756"/><path d="M90.226-922.005,88.7-925.275H80.948l-1.5,3.269H76.288l8.569-17.4,8.525,17.4Zm-5.1-11.022a3.219,3.219,0,0,1-.287-.794,5.637,5.637,0,0,1-.331.794l-2.386,5.191H87.53Z" transform="translate(33.444 939.41)" fill="#575756"/><path d="M95.764-922.313,90.088-928.5h-.441v6.184H86.819v-16.72h3.534c3.091,0,7.089.794,7.089,5.167a5.2,5.2,0,0,1-4.372,4.949l6.6,6.6Zm-5.015-8.636c2.5,0,3.734-1.28,3.734-2.763,0-1.789-1.126-2.737-3.534-2.737h-1.3v5.5Z" transform="translate(42.039 939.718)" fill="#575756"/><path d="M104.892-922.313l-7.352-6.76v6.76H94.712v-16.72H97.54v6.825l6.315-6.825h3.667l-8.04,8.173,9.564,8.547Z" transform="translate(48.482 939.718)" fill="#575756"/></g><g transform="translate(74.788 -846.723)"><path d="M46.736-918.07l-4.014-3.689v3.689H41.178V-927.2h1.544v3.723l3.447-3.723h2l-4.388,4.461L49-918.07Z" transform="translate(-41.178 927.954)" fill="#575756"/><path d="M48.788-919.177a3.215,3.215,0,0,1-3.278-3.207,3.235,3.235,0,0,1,3.315-3.231,3.22,3.22,0,0,1,3.255,3.231A3.24,3.24,0,0,1,48.788-919.177Zm1.784-3.207a1.862,1.862,0,0,0-1.758-2.038,1.878,1.878,0,0,0-1.833,2.074,1.888,1.888,0,0,0,1.8,1.989A1.8,1.8,0,0,0,50.572-922.385Z" transform="translate(-37.642 929.243)" fill="#575756"/><path d="M49.795-919.359v-6.088h1.424v.941c.133-.289.614-1.11,1.324-1.11a2.01,2.01,0,0,1,1.086.3l-.518,1.326a1.365,1.365,0,0,0-.808-.289c-.688,0-1.084.772-1.084,1.531v3.387Z" transform="translate(-34.145 929.243)" fill="#575756"/><path d="M56.371-919.359v-3.314c0-1.061-.193-1.689-1.182-1.689a2.058,2.058,0,0,0-1.4.7v4.3H52.37v-6.088h1.422v.627a2.957,2.957,0,0,1,1.952-.8c1.326,0,2.049.663,2.049,2.194v4.063Z" transform="translate(-32.043 929.243)" fill="#575756"/><path d="M61.945-919.986a4.157,4.157,0,0,1-2.568.808,3.09,3.09,0,0,1-3.365-3.182,3.084,3.084,0,0,1,3.184-3.257,2.9,2.9,0,0,1,2.966,3.158v.59H57.484c.084.785.794,1.507,2.134,1.507A3,3,0,0,0,61.5-921Zm-1.266-3.026a1.467,1.467,0,0,0-1.509-1.482,1.618,1.618,0,0,0-1.673,1.482Z" transform="translate(-29.071 929.243)" fill="#575756"/><path d="M64.053-925.523h1.422v5.425a3.922,3.922,0,0,1-2.7.845c-1.6,0-2.735-.785-2.735-2.363v-3.907h1.422v3.558c0,1.2.687,1.529,1.458,1.529a1.913,1.913,0,0,0,1.133-.325Z" transform="translate(-25.783 929.319)" fill="#575756"/><path d="M63.867-927.613h1.422v4.17a3.37,3.37,0,0,1,1.822-.543,2.881,2.881,0,0,1,2.784,3.171,3.2,3.2,0,0,1-3.425,3.267,4.825,4.825,0,0,1-2.6-.759Zm1.422,8.594a2.246,2.246,0,0,0,1.159.289,1.866,1.866,0,0,0,1.94-2.051c0-1.061-.556-2.012-1.591-2.012a2.406,2.406,0,0,0-1.507.59Z" transform="translate(-22.659 927.613)" fill="#575756"/><path d="M71.854-925.523h1.422v5.425a3.919,3.919,0,0,1-2.7.845c-1.6,0-2.735-.785-2.735-2.363v-3.907h1.424v3.558c0,1.2.685,1.529,1.457,1.529a1.9,1.9,0,0,0,1.133-.325Z" transform="translate(-19.416 929.319)" fill="#575756"/><path d="M71.682-919.359v-6.088H73.1v.941c.134-.289.614-1.11,1.326-1.11a2,2,0,0,1,1.084.3L75-923.989a1.354,1.354,0,0,0-.806-.289c-.688,0-1.086.772-1.086,1.531v3.387Z" transform="translate(-16.28 929.243)" fill="#575756"/><path d="M78.54-919.9a2.458,2.458,0,0,1-1.653.725,3,3,0,0,1-2.857-3.22,3.147,3.147,0,0,1,3.351-3.218,5,5,0,0,1,2.581.627v5.919a2.693,2.693,0,0,1-2.93,2.979,5.2,5.2,0,0,1-2.75-.735l.592-1.084a3.782,3.782,0,0,0,2.123.637,1.41,1.41,0,0,0,1.542-1.6Zm0-4.292a2.734,2.734,0,0,0-1.11-.252,1.831,1.831,0,0,0-1.905,2.049c0,.87.494,2.025,1.629,2.025a1.6,1.6,0,0,0,1.386-.736Z" transform="translate(-14.364 929.243)" fill="#575756"/></g><g transform="translate(49.138 -999.91)"><g transform="translate(39.753 20.26)"><path d="M87.518-923.656a38.618,38.618,0,0,1-38.575-38.573A38.617,38.617,0,0,1,87.518-1000.8a38.616,38.616,0,0,1,38.573,38.573A38.617,38.617,0,0,1,87.518-923.656Zm0-73.876a35.344,35.344,0,0,0-35.305,35.3,35.344,35.344,0,0,0,35.305,35.3,35.344,35.344,0,0,0,35.3-35.3A35.343,35.343,0,0,0,87.518-997.533Z" transform="translate(-48.943 1000.802)" fill="#575756"/></g><g transform="translate(19.877)"><path d="M76.572-934.812A38.616,38.616,0,0,1,38-973.384a38.616,38.616,0,0,1,38.573-38.573,38.617,38.617,0,0,1,38.575,38.573A38.617,38.617,0,0,1,76.572-934.812Zm0-73.876a35.345,35.345,0,0,0-35.305,35.3,35.345,35.345,0,0,0,35.305,35.3,35.344,35.344,0,0,0,35.3-35.3A35.344,35.344,0,0,0,76.572-1008.688Z" transform="translate(-37.999 1011.957)" fill="#575756"/></g><g transform="translate(0 20.26)"><path d="M65.626-923.656a38.616,38.616,0,0,1-38.571-38.573A38.615,38.615,0,0,1,65.626-1000.8,38.617,38.617,0,0,1,104.2-962.229,38.618,38.618,0,0,1,65.626-923.656Zm0-73.876a35.344,35.344,0,0,0-35.3,35.3,35.344,35.344,0,0,0,35.3,35.3,35.343,35.343,0,0,0,35.3-35.3A35.343,35.343,0,0,0,65.626-997.533Z" transform="translate(-27.055 1000.802)" fill="#575756"/></g><g transform="translate(19.877 39.755)"><path d="M76.572-912.922A38.616,38.616,0,0,1,38-951.5a38.616,38.616,0,0,1,38.573-38.573A38.617,38.617,0,0,1,115.146-951.5,38.617,38.617,0,0,1,76.572-912.922Zm0-73.878A35.347,35.347,0,0,0,41.266-951.5a35.345,35.345,0,0,0,35.305,35.3,35.344,35.344,0,0,0,35.3-35.3A35.345,35.345,0,0,0,76.572-986.8Z" transform="translate(-37.999 990.068)" fill="#575756"/></g></g></g></svg>