<svg xmlns="http://www.w3.org/2000/svg" width="183.463" height="183.462" viewBox="0 0 183.463 183.462"><g transform="translate(-1024.388 -2944.981)"><rect width="181.663" height="181.663" transform="translate(1025.288 2945.881)" fill="#781421" stroke="#fff" stroke-miterlimit="10" stroke-width="1.8"/><text transform="translate(1109.178 3092.539)" fill="#fff" font-size="17" font-family="SegoeUI, Segoe UI" letter-spacing="0.02em"><tspan x="-52.335" y="0">GARTENPARK</tspan></text><text transform="translate(1094.906 3104.359)" fill="#fff" font-size="8" font-family="SegoeUI, Segoe UI"><tspan x="0" y="0" letter-spacing="-0.011em">K</tspan><tspan y="0">orneubu</tspan><tspan y="0" letter-spacing="-0.006em">r</tspan><tspan y="0">g</tspan></text><g transform="translate(1067.721 2968.862)"><g transform="translate(34.08 17.367)"><path d="M119.2,294.544a31.667,31.667,0,1,0-31.668-31.666A31.667,31.667,0,0,0,119.2,294.544" transform="translate(-87.535 -231.21)" fill="none" stroke="#fff" stroke-miterlimit="10" stroke-width="1.8"/></g><g transform="translate(17.04 0)"><path d="M108.257,283.389a31.666,31.666,0,1,0-31.666-31.666,31.666,31.666,0,0,0,31.666,31.666" transform="translate(-76.591 -220.056)" fill="none" stroke="#fff" stroke-miterlimit="10" stroke-width="1.8"/></g><g transform="translate(0 17.367)"><path d="M97.313,294.544a31.667,31.667,0,1,0-31.666-31.666,31.667,31.667,0,0,0,31.666,31.666" transform="translate(-65.647 -231.21)" fill="none" stroke="#fff" stroke-miterlimit="10" stroke-width="1.8"/></g><g transform="translate(17.04 34.08)"><path d="M108.257,305.278a31.667,31.667,0,1,0-31.666-31.666,31.666,31.666,0,0,0,31.666,31.666" transform="translate(-76.591 -241.944)" fill="none" stroke="#fff" stroke-miterlimit="10" stroke-width="1.8"/></g></g></g></svg>