<svg id="special-map" xmlns="http://www.w3.org/2000/svg" xmlns:xlink="http://www.w3.org/1999/xlink" width="312" height="312.001" viewBox="0 0 312 312.001">
  <defs>
    <clipPath id="clip-path">
      <path id="Контур_645" data-name="Контур 645" d="M83.517-202.065l-.285-.18-.248.334-2.706-1.7-4.606-1.474-4.054,3.318,2.949,2.558-1.055,2.445a12.182,12.182,0,0,1,1.834,1.213h0a68.026,68.026,0,0,1,13.237,7.811h0a52.682,52.682,0,0,1,12.582,13.055h0l6.457-11.673-.484-7.833.093-.142-.01-.155,4.3-6.647-1.175-5.584h-9.822l-.7-2.406-10.333-.965Z" transform="translate(-71.618 210.092)" fill="#909090"/>
    </clipPath>
    <clipPath id="clip-path-2">
      <path id="Контур_651" data-name="Контур 651" d="M0,56.882H312v-312H0Z" transform="translate(0 255.118)" fill="none"/>
    </clipPath>
  </defs>
  <path id="Контур_643" data-name="Контур 643" d="M0,56.881H312v-312H0Z" transform="translate(0 255.119)" fill="#c7c7c7"/>
  <g id="Сгруппировать_284" data-name="Сгруппировать 284" transform="translate(87.586 55.066)" clip-path="url(#clip-path)">
    <path id="Контур_644" data-name="Контур 644" d="M71.589-210.146h40.36v35.262H71.589Z" transform="translate(-71.624 210.08)" fill="#909090"/>
  </g>
  <g id="Сгруппировать_285" data-name="Сгруппировать 285" transform="translate(131.272 197.521)">
    <path id="Контур_646" data-name="Контур 646" d="M.876.642-2.684.233l-.749,5,.807,2.081,1.716,1.7.39,1.169,4.286,3.547.273,1.13,3.819-.9,2.376.468,1.774-1.358,4.312-7.655V3.494L11.5,2.355,5.812-3.921Z" transform="translate(3.433 3.921)" fill="#fff"/>
  </g>
  <g id="Сгруппировать_286" data-name="Сгруппировать 286" transform="translate(52.193 23.494)">
    <path id="Контур_647" data-name="Контур 647" d="M.905,7.643-4.059-8.721l2.574.368,2.39-.185,1.838.552L4.766-9.272V-19.2l-1.1-2.023,1.471-4.6-1.1-2.39,2.39-1.655,1.1-3.677,7.906,2.758,2.022-3.493,1.839.92v1.47l1.1.736-.552,4.229.368,2.757L21.5-23.8l.92,1.471-.185,1.1,5.516,1.287L32.9-16.811,35.1-13.868l-.368,1.655-2.941.552L31.61-9.824,31.242-7.25l1.287,1.1L32.9-1.734,27.013,4.885,21.865,2.31,19.106,3.782l-2.941.368L13.959,7.274Z" transform="translate(4.059 34.277)" fill="none" stroke="#fff" stroke-width="0.53"/>
  </g>
  <g id="Сгруппировать_287" data-name="Сгруппировать 287" transform="translate(77.749 6.763)">
    <path id="Контур_648" data-name="Контур 648" d="M1.341,0,.789.735l1.655.92H5.2l1.839.552.918.552,3.677.735.183,1.1-1.1,1.1-1.47-.367L8.879,6.8,5.937,6.067l-4.412,9.01-2.206-1.1-1.655,3.309-1.1-.92-1.655,2.39-.367,2.023.918.552-1.47,5.884" transform="translate(6.013)" fill="none" stroke="#fff" stroke-width="0.53"/>
  </g>
  <g id="Сгруппировать_288" data-name="Сгруппировать 288" transform="translate(83.37 54.934)">
    <path id="Контур_649" data-name="Контур 649" d="M0,1.414,2.1,2.851,4.491,2.3,8.352-1.561l4.781,1.47L15.89,1.748l6.251-8.09,10.664.92.552,2.573h9.56L44.2,2.666l-4.229,6.8.552,7.906-6.8,11.583,8.089,10.3-.735,14.524L42,64.627l3.309,7.355,11.767,2.574-1.471-5.7,5.884-.918,2.022-3.494-2.573-4.6,3.125-6.068,3.309.92L64.428,39.99l-7.17-2.941.183,2.39-3.126-1.655-2.206.92-1.1-2.206-4.044.735L47.145,33,38.064,21.6" transform="translate(0 6.342)" fill="none" stroke="#fff" stroke-width="0.53"/>
  </g>
  <g id="Сгруппировать_290" data-name="Сгруппировать 290" transform="translate(0 0.001)" clip-path="url(#clip-path-2)">
    <g id="Сгруппировать_289" data-name="Сгруппировать 289" transform="translate(128.126 39.304)">
      <path id="Контур_650" data-name="Контур 650" d="M0,4.559,8.825,8.42l2.023-4.044L10.3,4.007l.183-.92L9.193,1.616,9.745-.405,7.354-.773,6.987-4.266,4.412-5.554,5.7-8.312,4.412-8.679,5.7-10.518l5.884-.552v-6.8l.368-.92,1.838,1.1.92-1.1,2.758.735.183,2.207,5.149,1.47,6.435,3.126,1.287.92L30.7-9.047l1.471-.183,1.288,2.941h1.1l.552-1.287L34.2-10.7l-1.838.368-1.1-.368.92-1.288-.735-1.838,1.838-2.758,1.839.552,1.287-1.1.552,2.023.552-.185.552-3.493,3.861-.368,4.046-1.287.367,1.287-1.287,1.1,2.206,3.494,2.206.183L53.5-12.54l1.471-.185,1.287,1.471.185,1.47L58.834-8.5l-1.287,2.39,3.126,1.655-.185,9.193L57,7.868l-1.1.368-1.471.735-1.287,1.287-1.655.368-2.023,5.332-1.1-.92-1.1,1.288.368,1.1L42.1,20.37l-5.516-1.838L32.36,16.141l-1.656-1.1-3.676-.367-.185-1.839h1.288L28.5,9.891l6.435-5.7,1.839-3.125V-2.612a13.32,13.32,0,0,0-.92-2.206l.183-1.471.92-.92-.183-2.574.918-2.022,2.206-1.1.368-2.391,1.655-2.39.037-1.287" transform="translate(0 20.446)" fill="none" stroke="#fff" stroke-width="0.53"/>
    </g>
  </g>
  <g id="Сгруппировать_291" data-name="Сгруппировать 291" transform="translate(138.789 62.932)">
    <path id="Контур_652" data-name="Контур 652" d="M3.453,1.022.327-1.184-3.35-2.655l-4.137-.92-1.1-.735L-9.6-4.493l-1.838.183-1.2-.275-1.01,1.562-.645.553-1.195-.368" transform="translate(15.485 4.585)" fill="none" stroke="#fff" stroke-width="0.53"/>
  </g>
  <g id="Сгруппировать_292" data-name="Сгруппировать 292" transform="translate(138.33 66.057)">
    <path id="Контур_653" data-name="Контур 653" d="M0,0,2.3,1.287,1.287,6.067,11.859,9.193l1.93,2.666-.367,2.39,4.321,2.39-1.655,4.6,3.769,1.838L18.11,29.6l-1.195-.459L9.468,35.024" fill="none" stroke="#fff" stroke-width="0.53"/>
  </g>
  <g id="Сгруппировать_293" data-name="Сгруппировать 293" transform="translate(156.44 95.198)">
    <path id="Контур_654" data-name="Контур 654" d="M.017.067,1.212.9l-1.287,2.3L5.441,6.319,6.36,3.1,18.4-.3,29.71,6.5l-.185,23.81,22.247,16,4.6,1.471,1.378-7.263L56.553,27.462H66.666l12.594,8-5.24,11.859,3.861,2.574-.275,3.125,11.766,5.057,6.344-1.655,4.5,1.563-5.331,19.4,5.607.092,3.218,4.781L99.852,104.5l-6.527,15.537,3.493,7.262L93.6,142.189l.828,2.942,2.39-2.3,4.229-.276,1.563,4.046-2.115,2.666,2.3,6.894h3.034l4.5,2.115,3.769-1.838h4.321l1.746,5.331-.643,22.34" transform="translate(0.075 0.301)" fill="none" stroke="#fff" stroke-width="0.53"/>
  </g>
  <g id="Сгруппировать_294" data-name="Сгруппировать 294" transform="translate(188.431 64.494)">
    <path id="Контур_655" data-name="Контур 655" d="M7.039,11.1,13.474-8.761l8.09-15.628-2.942-.185L-4.728-45.533l-.552-1.1-1.47-.735-1.1,3.676-2.206-.735-2.391,3.677L-18.7-43.51l-.92-2.574-1.471,1.838V-46.82l-1.47-.92-.552-1.287-2.207-.553-2.206,2.207-4.044-2.391" transform="translate(31.571 49.762)" fill="none" stroke="#fff" stroke-width="0.53"/>
  </g>
  <g id="Сгруппировать_295" data-name="Сгруппировать 295" transform="translate(167.655 70.929)">
    <path id="Контур_656" data-name="Контур 656" d="M6.148,0,4.971,1.1,4.6,13.605l-2.39,2.758-7.722.368L-14.7,13.605l-1.1,1.471-1.839-.92-2.39,4.6-6.619-2.573-.92,4.044.92.92,6.435.183,3.125,2.206.073,2.758" transform="translate(27.572)" fill="none" stroke="#fff" stroke-width="0.53"/>
  </g>
  <g id="Сгруппировать_296" data-name="Сгруппировать 296" transform="translate(97.054 6.947)">
    <path id="Контур_657" data-name="Контур 657" d="M7.844,6.2V4.546L.305-1.521-5.945-9.979-7.6-10.714v-2.942l-4.046-.918-2.023,2.206-6.067-3.126-1.47,1.655h-1.471l-2.758-3.493-.185-3.494-4.044-4.412-4.229-.918-1.287-1.655" transform="translate(35.179 27.812)" fill="none" stroke="#fff" stroke-width="0.53"/>
  </g>
  <g id="Сгруппировать_297" data-name="Сгруппировать 297" transform="translate(139.341 141.898)">
    <path id="Контур_658" data-name="Контур 658" d="M12.6,0-1,12.319l-8.825.183-7.538,11.216-.368,3.309-4.781,1.47-2.941-1.47L-36.3,38.242l-7.538,5.332.183,2.758-3.309,2.574-.735-2.574-2.574-1.655-5.882,4.412-.368,3.677,1.471,3.126,5.331,6.067,4.964,1.1,3.677-1.1.185-1.838V57.364l-.185-1.471.736-1.1h1.47l9.01-7.355" transform="translate(56.527)" fill="none" stroke="#fff" stroke-width="0.53"/>
  </g>
  <g id="Сгруппировать_298" data-name="Сгруппировать 298" transform="translate(155.061 196.964)">
    <path id="Контур_659" data-name="Контур 659" d="M.3,0,.578.92.025,2.39l-.735.276-.643-.552" transform="translate(1.353)" fill="none" stroke="#fff" stroke-width="0.53"/>
  </g>
  <g id="Сгруппировать_299" data-name="Сгруппировать 299" transform="translate(144.948 203.95)">
    <path id="Контур_660" data-name="Контур 660" d="M1.844,0,4.6,3.033l.828,5.425,7.354,3.033,2.758,4.964L21.7,22.8,44.5,33.463,72.077,46.884l1.839-1.838,7.814,6.344-9.1,3.309-3.677-3.126-3.585,4.321-6.435-1.38L45.326,70.877l-15.26,2.115-.092-3.677L12.508,43.206l-6.9-6.159-10.2-13.422-3.677-8.641V12.043l1.748-1.38L-2.109,2.85-2.2,1.195" transform="translate(8.269)" fill="none" stroke="#fff" stroke-width="0.53"/>
  </g>
  <g id="Сгруппировать_300" data-name="Сгруппировать 300" transform="translate(158.83 228.403)">
    <path id="Контур_661" data-name="Контур 661" d="M3.788.1-.35-.451-1.544.744-4.67,1.2-6.232,4.513-11.381.744l-1.93.92L-13.5,4.7l-3.493,4.779.092,2.666" transform="translate(16.988 0.451)" fill="none" stroke="#fff" stroke-width="0.53"/>
  </g>
  <g id="Сгруппировать_301" data-name="Сгруппировать 301" transform="translate(37.115 252.581)">
    <path id="Контур_662" data-name="Контур 662" d="M26.615,4.475l-.368,5.332,1.288,1.378,1.1,11.032L20.18,19.367l-2.85,2.574-5.24-.275L13.1,23.872l-3.309.552L7.586,20.287-23.3,12.565l-4.321-3.677-17.19-4.5-3.677,12.686-3.126-.552-.552,5.7-3.861-1.195L-62,16.7l.92-3.586-6.435-1.563-1.38-.92-2.573.92-7.263-3.586-3.218-.092L-88.2,12.2l-6.9-1.655-4.689,1.011-13.7,6.8-2.573-3.309L-114.5,13.3l13.514-3.585.828-2.023-1.931-.828,1.195-2.665L-112.2,6.589l.735-2.39-7.906-9.838,2.391-3.309h1.746l1.471-.918.092-1.471,3.218.92,4.044,3.125,10.848-6.894,2.85-.552,4.321-3.126,3.034.92,6.159,4.321,4.689-7.263,1.563.828-1.011,1.746,2.023.735,1.1-.275,1.195,2.574,2.941-1.2.552-4.6,2.115.46-1.838,5.882,1.746,1.656,5.884-6.067,5.792,2.3,2.665.092L-48.4-14l1.195-.368,6.067.093,2.483-3.586,3.586,6.527,14.524,2.39,9.653,4.321-7.355,18.111" transform="translate(119.369 20.07)" fill="none" stroke="#fff" stroke-width="0.53"/>
  </g>
  <g id="Сгруппировать_302" data-name="Сгруппировать 302" transform="translate(65.706 188.966)">
    <path id="Контур_663" data-name="Контур 663" d="M4.495,11.564,7.511,3.383l1.1.828L10.82,1.82l4.412,2.023,4.229-5.516,3.676-9.376-.183-4.137-4.5-4.964,1.011-4.321,2.3-.828-4.781-3.033L11-29.987,4.568-32.561,3.1-31-.212-32.1l.552-3.309L.432-39-3.8-40.008l-.828.552-3.953-1.195-.368-1.378-3.769-1.2-.827,1.1L-15.1-44.329l-3.218-.643-1.838-1.1,2.3-2.849.092-1.195,2.574.735,3.218-2.206L-6-51.867l2.206.552,2.3,2.666,1.746.092,1.195-.827-.092,2.3L3.1-46.9l3.677-2.941,4.781,1.563-.092-1.195,2.941.552-.46,1.1,3.494.275H19.92l3.4,2.483-.828,2.758,1.838,2.39h1.931l.276,2.023,7.63-1.931v2.851l1.378.367-2.115,7.355L18.358-32.1,17-28.3" transform="translate(20.16 51.867)" fill="none" stroke="#fff" stroke-width="0.53"/>
  </g>
  <g id="Сгруппировать_304" data-name="Сгруппировать 304" transform="translate(0 0.001)" clip-path="url(#clip-path-2)">
    <g id="Сгруппировать_303" data-name="Сгруппировать 303" transform="translate(18.914 208.821)">
      <path id="Контур_664" data-name="Контур 664" d="M4.257,9.57-5.856,7.364S-8.337,9.387-8.337,9.018s-.183-5.24-.183-5.24l-2.759-6.619-7.814-5.24,3.861-1.838v-4.044l8.09-9.378L-3.1-37.13l-.368-1.563L.856-42.37l5.516.736,4.044-.552,2.758-.736,6.712,5.332,5.424-.183L35.789-29.5l14.157,1.838,25.833,7.355,4.228-1.287L83.316-24.9l2.851,1.195,3.676,8.273-1.195.183L85.982-13.32l.368,2.115,2.115.918v1.655L86.718-6.7l-5.24-.643L78.443.469,79.713,2.9" transform="translate(19.093 42.922)" fill="none" stroke="#fff" stroke-width="0.53"/>
    </g>
  </g>
  <g id="Сгруппировать_305" data-name="Сгруппировать 305" transform="translate(127.85 227.76)">
    <path id="Контур_666" data-name="Контур 666" d="M3.754,0-14.08,8.365l-2.758.185" transform="translate(16.838)" fill="none" stroke="#fff" stroke-width="0.53"/>
  </g>
  <g id="Сгруппировать_306" data-name="Сгруппировать 306" transform="translate(119.301 206.893)">
    <path id="Контур_667" data-name="Контур 667" d="M3.754,4.508l.092-1.1-3.4-4.6L.353-2.57l.735-1.195-2.758-4.5-2.206.643L-5.622-5.7l.092,1.931L-7-2.478l.368.92-6.9,1.838L-15-.364l-.918-1.378,1.195-6.435-2.115-7.355,1.379-4.688,5.607,2.3,3.769.183,2.115-.735L-2.4-16.635l.275,1.195,4.6,3.677.092,1.011,3.861-.92,2.3.552" transform="translate(16.838 20.22)" fill="none" stroke="#fff" stroke-width="0.53"/>
  </g>
  <g id="Сгруппировать_307" data-name="Сгруппировать 307" transform="translate(121.507 213.327)">
    <path id="Контур_668" data-name="Контур 668" d="M2.614,0-2.809,2.483-7.038,5.24l-2.3-.276-2.39.643" transform="translate(11.726)" fill="none" stroke="#fff" stroke-width="0.53"/>
  </g>
  <g id="Сгруппировать_308" data-name="Сгруппировать 308" transform="translate(134.193 216.361)">
    <path id="Контур_669" data-name="Контур 669" d="M.821,0l-4.5,2.574" transform="translate(3.683)" fill="none" stroke="#fff" stroke-width="0.53"/>
  </g>
  <g id="Сгруппировать_309" data-name="Сгруппировать 309" transform="translate(134.929 154.952)">
    <path id="Контур_670" data-name="Контур 670" d="M1.24,0-.783.735,1.424,10.3-5.562,25.373l3.309,7.354,1.433,4.082" transform="translate(5.562)" fill="none" stroke="#fff" stroke-width="0.53"/>
  </g>
  <g id="Сгруппировать_310" data-name="Сгруппировать 310" transform="translate(121.433 179.59)">
    <path id="Контур_671" data-name="Контур 671" d="M2.454.134.358-.6l-1.4,4.449L-4.312,5.281l-1.2,7.63-2.206.553L-9.736,18.7-11.005,24" transform="translate(11.005 0.601)" fill="none" stroke="#fff" stroke-width="0.53"/>
  </g>
  <g id="Сгруппировать_311" data-name="Сгруппировать 311" transform="translate(131.068 197.883)">
    <path id="Контур_672" data-name="Контур 672" d="M1.709,0-3.346,4.137-6.84,3.586l-.827,5.147,1.011,2.023" transform="translate(7.667)" fill="none" stroke="#fff" stroke-width="0.53"/>
  </g>
  <g id="Сгруппировать_312" data-name="Сгруппировать 312" transform="translate(83.724 164.973)">
    <path id="Контур_673" data-name="Контур 673" d="M8.732,6.637l-4.044-1.1H-.736l.367-1.655-1.47-.185-.276-2.113L-4.6.57-4.69-1.821-9.654-6.234l-1.838.643-4.781-3.125-.368-3.034-5.147.46-7.538-5.7-2.206,1.839-.643-3.494-5.884.185.46-2.115,5.516-2.666.183-1.655-7.262-.092.368-2.206,3.676-2.574,3.494,1.746L-22.8-26l1.471,3.126,3.769,1.838,2.3.276,7.905,5.147,4.872-.092.093,3.126,10.8,1.885" transform="translate(39.163 29.767)" fill="none" stroke="#fff" stroke-width="0.53"/>
  </g>
  <g id="Сгруппировать_313" data-name="Сгруппировать 313" transform="translate(86.298 126.546)">
    <path id="Контур_674" data-name="Контур 674" d="M7.156,0,4.215,1.378,5.594,5.056.721,8.182l-5.332,4.964-4.412-1.195-3.769,3.586L-18.4,17.65-21.526,16l-6.251,1.931-4.229,4.964,5.884,2.758-5.975,6.16,1.287,6.619" transform="translate(32.097)" fill="none" stroke="#fff" stroke-width="0.53"/>
  </g>
  <g id="Сгруппировать_314" data-name="Сгруппировать 314" transform="translate(62.029 158.446)">
    <path id="Контур_675" data-name="Контур 675" d="M4.358,0,.5,1.287-1.8.368-8.788,2.39-8.88,3.4l3.309.368.552,1.563-2.3,1.287.093.92,1.93.643,5.149,4.964.46,4.046-5.057.735-6.067,6.987v.92l-3.033,1.01-5.7,11.4.735.643,1.38-1.562.92-.093.515-.735" transform="translate(19.544)" fill="none" stroke="#fff" stroke-width="0.53"/>
  </g>
  <g id="Сгруппировать_315" data-name="Сгруппировать 315" transform="translate(20.385 151.643)">
    <path id="Контур_676" data-name="Контур 676" d="M9.788,2.581,8.685,2.4l.183,2.39L6.3,7.545,4.456,7.178,3.169,13.061l-4.412-.552-5.7,2.391-2.022-2.391-.553-2.022,3.126-6.435-7.17-2.758-2.574-4.046-8.457-4.6-3.494-4.229-2.206,2.758-.183,4.046.735,2.206-2.573.735L-32.5.191l-3.493,2.39-2.023,6.252.552,9.745,3.677,3.309-.368,1.655-1.655-.553-2.39,2.023-1.839,1.1L-43.9,29.609h4.229l1.471-.552,3.125.367L-36.912,33.1l1.471,5.516,8.09,3.862-4.6,5.516,2.206,1.655" transform="translate(43.899 11.576)" fill="none" stroke="#fff" stroke-width="0.53"/>
  </g>
  <g id="Сгруппировать_316" data-name="Сгруппировать 316" transform="translate(13.398 259.751)">
    <path id="Контур_677" data-name="Контур 677" d="M3.754,0-11.322,15.26l-5.516,3.493" transform="translate(16.838)" fill="none" stroke="#fff" stroke-width="0.53"/>
  </g>
  <g id="Сгруппировать_317" data-name="Сгруппировать 317" transform="translate(38.587 65.413)">
    <path id="Контур_678" data-name="Контур 678" d="M0,.872,26.476-3.909,52.216.5,68.027,11.351l9.193,8.641,6.619,20.592L85.31,53.822,96.526,76.805l18.936,28.5,19.122,24.27,30.152,29.417,35.3,30.52,26.108,16.915,24.27,8.09" transform="translate(0 3.909)" fill="none" stroke="#fff" stroke-width="2.652"/>
  </g>
  <g id="Сгруппировать_318" data-name="Сгруппировать 318" transform="translate(124.081 116.893)">
    <path id="Контур_679" data-name="Контур 679" d="M0,0,38.059,61.041,57.916,84.207l29.049,28.682,26.476,22.247,11.766,14.34" fill="none" stroke="#fff" stroke-width="2.652"/>
  </g>
  <g id="Сгруппировать_319" data-name="Сгруппировать 319" transform="translate(156.072 167.638)">
    <path id="Контур_680" data-name="Контур 680" d="M0,0,17.283,5.516l6.435,6.435,4.044,10.113,1.287,14.709" fill="none" stroke="#fff" stroke-width="2.652"/>
  </g>
  <g id="Сгруппировать_320" data-name="Сгруппировать 320" transform="translate(178.503 179.957)">
    <path id="Контур_681" data-name="Контур 681" d="M.2,0-.9,8.825.2,18.386" transform="translate(0.902)" fill="none" stroke="#fff" stroke-width="2.652"/>
  </g>
  <path id="Контур_682" data-name="Контур 682" d="M115.686-183.837h96.927v-25.476H115.686Z" transform="translate(25.794 265.332)" fill="#c7c7c7"/>
  <g id="Сгруппировать" transform="translate(147.029 58.559)">
    <text id="K" transform="translate(0 15)" fill="#fff" font-size="13" font-family="SegoeUI-Bold, Segoe UI" font-weight="700"><tspan x="0" y="0">K</tspan></text>
    <text id="orneuburg" transform="translate(10.767 15)" fill="#fff" font-size="13" font-family="SegoeUI-Bold, Segoe UI" font-weight="700"><tspan x="0" y="0">orneuburg</tspan></text>
  </g>
  <g id="Сгруппировать_321" data-name="Сгруппировать 321" transform="translate(176.823 58.682)">
    <path id="Контур_683" data-name="Контур 683" d="M0,0,2.842,2.461,1.629,4.723" fill="none" stroke="#fff" stroke-width="0.548"/>
  </g>
</svg>
