<svg xmlns="http://www.w3.org/2000/svg" width="633.863" height="633.863" viewBox="0 0 633.863 633.863">
  <g id="special-logo-big" transform="translate(0.9 0.9)" opacity="0.12">
    <g id="Сгруппировать_19" data-name="Сгруппировать 19" transform="translate(221.123 112.694)">
      <g id="Сгруппировать_18" data-name="Сгруппировать 18">
        <path id="Контур_26" data-name="Контур 26" d="M293.01,490.5c113.471,0,205.465-91.993,205.465-205.465S406.481,79.572,293.01,79.572,87.535,171.555,87.535,285.037,179.528,490.5,293.01,490.5" transform="translate(-87.535 -79.572)" fill="none" stroke="#fff" stroke-miterlimit="10" stroke-width="1.8"/>
      </g>
    </g>
    <g id="Сгруппировать_21" data-name="Сгруппировать 21" transform="translate(110.562 0)">
      <g id="Сгруппировать_20" data-name="Сгруппировать 20">
        <path id="Контур_27" data-name="Контур 27" d="M282.056,479.346c113.481,0,205.465-91.983,205.465-205.465S395.537,68.417,282.056,68.417,76.591,160.41,76.591,273.882s91.993,205.465,205.465,205.465" transform="translate(-76.591 -68.417)" fill="none" stroke="#fff" stroke-miterlimit="10" stroke-width="1.8"/>
      </g>
    </g>
    <g id="Сгруппировать_23" data-name="Сгруппировать 23" transform="translate(0 112.694)">
      <g id="Сгруппировать_22" data-name="Сгруппировать 22">
        <path id="Контур_28" data-name="Контур 28" d="M271.111,490.5c113.471,0,205.465-91.993,205.465-205.465S384.583,79.572,271.111,79.572,65.647,171.555,65.647,285.037,157.63,490.5,271.111,490.5" transform="translate(-65.647 -79.572)" fill="none" stroke="#fff" stroke-miterlimit="10" stroke-width="1.8"/>
      </g>
    </g>
    <g id="Сгруппировать_25" data-name="Сгруппировать 25" transform="translate(110.562 221.134)">
      <g id="Сгруппировать_24" data-name="Сгруппировать 24">
        <path id="Контур_29" data-name="Контур 29" d="M282.056,501.235c113.481,0,205.465-91.993,205.465-205.465S395.537,90.306,282.056,90.306,76.591,182.3,76.591,295.77s91.993,205.465,205.465,205.465" transform="translate(-76.591 -90.306)" fill="none" stroke="#fff" stroke-miterlimit="10" stroke-width="1.8"/>
      </g>
    </g>
  </g>
</svg>
